<?xml version="1.0" standalone="no"?>
<!DOCTYPE svg PUBLIC "-//W3C//DTD SVG 1.1//EN" "http://www.w3.org/Graphics/SVG/1.1/DTD/svg11.dtd" >
<svg xmlns="http://www.w3.org/2000/svg">
<metadata>Generated by IcoMoon</metadata>
<defs>
<font id="icomoon" horiz-adv-x="1024">
<font-face units-per-em="1024" ascent="960" descent="-64" />
<missing-glyph horiz-adv-x="1024" />
<glyph unicode="&#x20;" horiz-adv-x="512" d="" />
<glyph unicode="&#xe900;" glyph-name="camera_05" d="M533.333 507.733c-61.867 0-113.067-51.2-113.067-113.067 0-8.533 6.4-12.8 14.933-12.8s14.933 6.4 14.933 12.8c0 46.933 38.4 83.2 83.2 83.2 8.533 0 14.933 6.4 14.933 12.8-2.133 10.667-8.533 17.067-14.933 17.067v0zM940.8 561.067v0c-10.667-4.267-17.067-14.933-17.067-25.6v-390.4c0-14.933-12.8-27.733-27.733-27.733h-727.467c-14.933 0-27.733 12.8-27.733 27.733v418.133c0 12.8 10.667 25.6 23.467 27.733l96 14.933c36.267 6.4 64 29.867 78.933 64l27.733 70.4c4.267 10.667 14.933 17.067 25.6 17.067h281.6c10.667 0 21.333-6.4 25.6-17.067l27.733-70.4c12.8-34.133 42.667-57.6 78.933-64 0 0 66.133-10.667 91.733-14.933 6.4 0 10.667 0 17.067 2.133 0 0 2.133 2.133 4.267 2.133 21.333 10.667 17.067 46.933-6.4 51.2v0l-64 10.667c-36.267 6.4-64 29.867-78.933 64l-17.067 42.667c-12.8 32-42.667 53.333-78.933 53.333h-281.6c-34.133 0-64-21.333-78.933-53.333l-17.067-42.667c-12.8-34.133-42.667-57.6-78.933-64l-64-10.667c-40.533-6.4-70.4-42.667-70.4-83.2v-420.267c0-46.933 38.4-83.2 83.2-83.2h729.6c46.933 0 83.2 38.4 83.2 83.2v392.533c2.133 19.2-19.2 34.133-38.4 25.6v0zM637.867 264.533c-53.333-42.667-128-49.067-187.733-14.933-96 53.333-113.067 177.067-46.933 256 59.733 70.4 166.4 78.933 236.8 17.067 6.4-6.4 12.8-10.667 19.2-19.2 8.533-10.667 25.6-12.8 36.267-4.267 0 0 2.133 2.133 4.267 2.133 10.667 8.533 12.8 25.6 2.133 36.267-42.667 49.067-102.4 78.933-170.667 78.933-123.733 0-224-100.267-224-224 0-121.6 100.267-221.867 226.133-221.867 123.733 0 224 100.267 224 224 0 10.667 0 23.467-2.133 34.133-2.133 19.2-23.467 29.867-40.533 19.2 0 0 0 0 0 0-10.667-6.4-14.933-17.067-12.8-27.733 6.4-55.467-14.933-115.2-64-155.733v0z" />
<glyph unicode="&#xe901;" d="M819.2 921.6h-221.867v-10.667c-2.133-108.8-72.533-204.8-174.933-236.8-104.533-32-217.6 4.267-279.467 93.867v-676.267c0-59.733 49.067-108.8 108.8-108.8h567.467c59.733 0 108.8 49.067 108.8 108.8v721.067c0 59.733-49.067 108.8-108.8 108.8v0zM637.867 288c0-10.667-6.4-19.2-17.067-23.467s-21.333-2.133-27.733 6.4l-59.733 59.733-59.733-59.733c-2.133-2.133-4.267-4.267-8.533-6.4-2.133-2.133-6.4-2.133-10.667-2.133-6.4 0-12.8 2.133-17.067 8.533-2.133 2.133-4.267 4.267-6.4 8.533-2.133 2.133-2.133 6.4-2.133 10.667v85.333c61.867-42.667 145.067-42.667 206.933 0l2.133-87.467zM535.467 366.933c-85.333 0-155.733 70.4-155.733 155.733s70.4 155.733 155.733 155.733c85.333 0 155.733-70.4 155.733-155.733 0-40.533-17.067-81.067-44.8-110.933-29.867-27.733-70.4-44.8-110.933-44.8v0z" />
<glyph unicode="&#xe902;" d="M379.733 522.667c0-85.333 70.4-155.733 155.733-155.733s155.733 70.4 155.733 155.733c0 85.333-70.4 155.733-155.733 155.733s-155.733-70.4-155.733-155.733v0z" />
<glyph unicode="&#xe903;" d="M430.933 373.333v-85.333c0-4.267 0-6.4 2.133-10.667 2.133-2.133 2.133-6.4 6.4-8.533 4.267-4.267 10.667-8.533 19.2-8.533 4.267 0 6.4 0 10.667 2.133 2.133 2.133 6.4 2.133 8.533 6.4l59.733 59.733 59.733-59.733c6.4-6.4 19.2-10.667 27.733-6.4 10.667 4.267 17.067 12.8 17.067 23.467v85.333c-66.133-40.533-149.333-40.533-211.2 2.133v0z" />
<glyph unicode="&#xe904;" d="M347.733 659.2c138.667 0 251.733 113.067 251.733 251.733v10.667h-343.467c-61.867 0-113.067-51.2-113.067-113.067v-40.533c46.933-68.267 123.733-108.8 204.8-108.8v0z" />
<glyph unicode="&#xe905;" d="M347.733 659.2c138.667 0 251.733 113.067 251.733 251.733v10.667h-343.467c-61.867 0-113.067-51.2-113.067-113.067v-40.533c46.933-68.267 123.733-108.8 204.8-108.8v0z" />
<glyph unicode="&#xe906;" d="M819.2 921.6h-221.867v-10.667c-2.133-108.8-72.533-204.8-174.933-236.8-104.533-32-217.6 4.267-279.467 93.867v-676.267c0-59.733 49.067-108.8 108.8-108.8h567.467c59.733 0 108.8 49.067 108.8 108.8v721.067c0 59.733-49.067 108.8-108.8 108.8v0z" />
<glyph unicode="&#xe908;" d="M347.733 659.2c138.667 0 251.733 113.067 251.733 251.733v10.667h-343.467c-61.867 0-113.067-51.2-113.067-113.067v-40.533c46.933-68.267 123.733-108.8 204.8-108.8v0z" />
<glyph unicode="&#xe909;" d="M347.733 659.2c138.667 0 251.733 113.067 251.733 251.733v10.667h-343.467c-61.867 0-113.067-51.2-113.067-113.067v-40.533c46.933-68.267 123.733-108.8 204.8-108.8v0z" />
<glyph unicode="&#xe90a;" d="M561.067 620.8l38.4-76.8c4.267-8.533 12.8-14.933 23.467-17.067l85.333-12.8c25.6-4.267 36.267-36.267 17.067-55.467l-61.867-59.733c-8.533-6.4-10.667-17.067-8.533-27.733l14.933-85.333c4.267-25.6-23.467-46.933-46.933-34.133l-76.8 40.533c-8.533 4.267-21.333 4.267-29.867 0l-76.8-40.533c-23.467-12.8-51.2 8.533-46.933 34.133l14.933 85.333c2.133 10.667-2.133 21.333-8.533 27.733l-61.867 59.733c-19.2 19.2-8.533 51.2 17.067 55.467l85.333 12.8c10.667 2.133 19.2 8.533 23.467 17.067l38.4 76.8c14.933 23.467 49.067 23.467 59.733 0z" />
<glyph unicode="&#xe90b;" d="M541.867 906.667c-157.867 0-305.067-81.067-388.267-217.6-83.2-134.4-91.733-302.933-21.333-445.867 0 0 0-2.133 0-2.133l-42.667-119.467c-8.533-21.333-2.133-46.933 12.8-64s38.4-25.6 61.867-21.333l130.133 25.6c0 0 0 0 2.133 0 72.533-46.933 157.867-72.533 245.333-72.533 12.8 0 27.733 0 42.667 2.133 217.6 19.2 392.533 192 413.867 409.6v2.133c-106.667 0-204.8 59.733-256 153.6s-46.933 209.067 10.667 298.667c-64 34.133-134.4 51.2-206.933 51.2h-4.267z" />
<glyph unicode="&#xe90c;" d="M358.4 330.667c-14.933 0-27.733 10.667-27.733 25.6 0 6.4 2.133 12.8 6.4 19.2 4.267 4.267 10.667 8.533 19.2 8.533h2.133c14.933 0 25.6-12.8 25.6-25.6 0-14.933-12.8-27.733-25.6-27.733v0z" />
<glyph unicode="&#xe90d;" d="M721.067 554.667h2.133c14.933 0 25.6-12.8 25.6-25.6 0-14.933-12.8-25.6-25.6-25.6h-2.133c-14.933 0-25.6 12.8-25.6 25.6-2.133 14.933 10.667 25.6 25.6 25.6v0z" />
<glyph unicode="&#xe90e;" d="M661.333 650.667c14.933-2.133 23.467-17.067 21.333-29.867l-14.933-83.2c2.133-6.4 0-14.933-4.267-19.2l-23.467-134.4h83.2c14.933 0 25.6-12.8 25.6-25.6 0-14.933-12.8-25.6-25.6-25.6h-91.733l-12.8-74.667c-2.133-14.933-17.067-23.467-29.867-21.333-14.933 2.133-23.467 17.067-21.333 29.867l10.667 64h-115.2l-12.8-72.533c-2.133-14.933-17.067-23.467-29.867-21.333-14.933 2.133-23.467 17.067-21.333 29.867l40.533 234.667h-83.2c-14.933 0-25.6 12.8-25.6 25.6 0 14.933 12.8 25.6 25.6 25.6h91.733l12.8 72.533c2.133 14.933 17.067 23.467 29.867 21.333 14.933-2.133 23.467-17.067 21.333-29.867l-10.667-64h115.2l12.8 72.533c2.133 17.067 17.067 27.733 32 25.6v0z" />
<glyph unicode="&#xe910;" d="M471.467 384h115.2l21.333 119.467h-115.2l-21.333-119.467zM1000.533 403.2c19.2 185.6-78.933 364.8-245.333 452.267-57.6-89.6-61.867-204.8-10.667-298.667s149.333-151.467 256-153.6v0z" />
<glyph unicode="&#xe911;" d="M1000.533 403.2c19.2 185.6-78.933 364.8-245.333 452.267-57.6-89.6-61.867-204.8-10.667-298.667s149.333-151.467 256-153.6v0z" />
<glyph unicode="&#xe912;" d="M725.333 490.667h-362.667c-23.467 0-42.667 19.2-42.667 42.667s19.2 42.667 42.667 42.667h362.667c23.467 0 42.667-19.2 42.667-42.667s-19.2-42.667-42.667-42.667z" />
<glyph unicode="&#xe913;" d="M682.667 320h-277.333c-23.467 0-42.667 19.2-42.667 42.667s19.2 42.667 42.667 42.667h277.333c23.467 0 42.667-19.2 42.667-42.667s-19.2-42.667-42.667-42.667z" />
<glyph unicode="&#xe914;" d="M845.824 59.563h-363.179c-2.389 0-4.096 2.048-4.096 4.096v97.621c0 2.389 2.048 4.096 4.096 4.096h285.355c1.365 0 2.389-0.683 3.413-1.707l77.824-97.28c2.389-2.731 0.341-6.827-3.413-6.827z" />
<glyph unicode="&#xe915;" d="M849.237 66.731l-77.824 97.28c-0.683 1.024-2.048 1.707-3.413 1.707h-42.325c1.365 0 2.389-0.683 3.413-1.707l77.824-97.28c2.048-2.731 0.341-6.827-3.413-6.827h42.325c3.755-0.341 5.803 3.755 3.413 6.827z" />
<glyph unicode="&#xe916;" d="M482.645 165.376h285.355c1.365 0 2.389-0.683 3.413-1.707l77.824-97.28c2.048-2.731 0.341-6.827-3.413-6.827h-363.179" />
<glyph unicode="&#xe917;" d="M812.373 681.472h-385.024c-41.984 0-76.117-34.133-76.117-76.117v-207.189c0-41.984 34.133-76.117 76.117-76.117h53.931l62.464-62.464c3.413-3.413 8.533-3.413 11.947 0l62.464 62.464h194.219c41.984 0 76.117 34.133 76.117 76.117v207.189c0 41.984-33.792 76.117-76.117 76.117z" />
<glyph unicode="&#xe918;" d="M812.373 681.472h-385.024c-41.984 0-76.117-34.133-76.117-76.117v-29.696c0 41.984 34.133 76.117 76.117 76.117h385.024c41.984 0 76.117-34.133 76.117-76.117v29.696c0 41.984-33.792 76.117-76.117 76.117z" />
<glyph unicode="&#xe919;" d="M544.085 259.243c3.413-3.413 8.533-3.413 11.947 0l62.464 62.464h193.877c41.984 0 76.117 34.133 76.117 76.117v207.189c0 26.283-13.653 49.835-33.792 63.488 8.192-11.947 12.629-26.624 12.629-42.325v-207.189c0-41.984-34.133-76.117-76.117-76.117h-193.536l-62.464-62.464c-3.413-3.413-8.533-3.413-11.947 0z" />
<glyph unicode="&#xe91a;" d="M651.605 681.472h-21.504" />
<glyph unicode="&#xe91b;" d="M557.056 681.472h-129.707c-41.984 0-76.117-34.133-76.117-76.117v-207.189c0-41.984 34.133-76.117 76.117-76.117h53.931l62.464-62.464c3.413-3.413 8.533-3.413 11.947 0l62.464 62.464h194.219c41.984 0 76.117 34.133 76.117 76.117v207.189c0 41.984-34.133 76.117-76.117 76.117h-126.635" />
<glyph unicode="&#xe91c;" d="M524.971 495.445c0-16.401-13.295-29.696-29.696-29.696s-29.696 13.295-29.696 29.696c0 16.401 13.295 29.696 29.696 29.696s29.696-13.295 29.696-29.696z" />
<glyph unicode="&#xe91d;" d="M651.947 495.445c0-16.401-13.295-29.696-29.696-29.696s-29.696 13.295-29.696 29.696c0 16.401 13.295 29.696 29.696 29.696s29.696-13.295 29.696-29.696z" />
<glyph unicode="&#xe91e;" d="M778.581 495.445c0-16.401-13.295-29.696-29.696-29.696s-29.696 13.295-29.696 29.696c0 16.401 13.295 29.696 29.696 29.696s29.696-13.295 29.696-29.696z" />
<glyph unicode="&#xe91f;" d="M1024 317.611c0-11.688-9.475-21.163-21.163-21.163s-21.163 9.475-21.163 21.163c0 11.688 9.475 21.163 21.163 21.163s21.163-9.475 21.163-21.163z" />
<glyph unicode="&#xe920;" d="M465.579 829.611c0-11.688-9.475-21.163-21.163-21.163s-21.163 9.475-21.163 21.163c0 11.688 9.475 21.163 21.163 21.163s21.163-9.475 21.163-21.163z" />
<glyph unicode="&#xe921;" d="M42.667 516.608c0-11.688-9.475-21.163-21.163-21.163s-21.163 9.475-21.163 21.163c0 11.688 9.475 21.163 21.163 21.163s21.163-9.475 21.163-21.163z" />
<glyph unicode="&#xe922;" d="M577.195 89.259h-360.789c-3.413 0-5.461 4.096-3.413 6.827l86.016 105.813c0.683 1.024 2.048 1.707 3.413 1.707h219.819c1.707 0 3.072-1.024 3.755-2.389l54.955-105.813c1.365-2.731-0.683-6.144-3.755-6.144z" />
<glyph unicode="&#xe923;" d="M247.125 96.085l86.016 105.813c0.683 1.024 2.048 1.707 3.413 1.707h-33.792c-1.365 0-2.389-0.683-3.413-1.707l-86.016-105.813c-2.389-2.731-0.341-6.827 3.413-6.827h33.792c-3.755 0-5.803 4.096-3.413 6.827z" />
<glyph unicode="&#xe924;" d="M287.061 186.88l12.288 15.36c0.683 1.024 2.048 1.707 3.413 1.707h219.477c1.707 0 3.072-1.024 3.755-2.389l54.955-105.813c1.365-2.731-0.683-6.144-3.755-6.144h-360.789c-3.413 0-5.461 4.096-3.413 6.827l37.547 46.080" />
<glyph unicode="&#xe925;" d="M269.653 165.376l6.144 7.509" />
<glyph unicode="&#xe926;" d="M375.808 762.027h-148.139c-41.984 0-76.117-34.133-76.117-76.117v-54.955c0-41.984 34.133-76.117 76.117-76.117h31.061l39.936-39.936c1.707-1.707 4.437-1.707 6.144 0l39.936 39.936h31.061c41.984 0 76.117 34.133 76.117 76.117v54.955c0 41.984-34.133 76.117-76.117 76.117z" />
<glyph unicode="&#xe927;" d="M298.667 514.901c1.707-1.707 4.437-1.707 6.144 0l39.936 39.936h31.061c41.984 0 76.117 34.133 76.117 76.117v54.955c0 25.259-12.288 47.787-31.403 61.44 9.216-12.629 14.677-27.989 14.677-44.715v-54.955c0-41.984-34.133-76.117-76.117-76.117h-31.403l-39.936-39.936c-1.707-1.707-4.437-1.707-6.144 0z" />
<glyph unicode="&#xe928;" d="M176.811 630.955v54.955c0 41.984 34.133 76.117 76.117 76.117h-25.259c-41.984 0-76.117-34.133-76.117-76.117v-54.955c0-41.984 34.133-76.117 76.117-76.117h25.259c-41.984-0.341-76.117 33.792-76.117 76.117z" />
<glyph unicode="&#xe929;" d="M151.552 655.531v-2.048" />
<glyph unicode="&#xe92a;" d="M151.552 630.955c0-41.984 34.133-76.117 76.117-76.117h31.061l39.936-39.936c1.707-1.707 4.437-1.707 6.144 0l39.936 39.936h31.061c41.984 0 76.117 34.133 76.117 76.117v54.955c0 41.984-34.133 76.117-76.117 76.117h-148.139c-41.984 0-76.117-34.133-76.117-76.117v-9.557" />
<glyph unicode="&#xe92b;" d="M203.435 707.072h190.123" />
<glyph unicode="&#xe92c;" d="M203.435 656.213h190.123" />
<glyph unicode="&#xe92d;" d="M203.435 605.355h71.68" />
<glyph unicode="&#xe92e;" glyph-name="drop_down_02" d="M915.2 642.133c0-8.533-2.133-17.067-8.533-23.467l-386.133-386.133-384 386.133c-12.8 12.8-12.8 32 0 44.8s32 12.8 44.8 0l339.2-339.2 339.2 339.2c12.8 12.8 32 12.8 44.8 0 8.533-6.4 10.667-14.933 10.667-21.333z" />
<glyph unicode="&#xe92f;" d="M789.333 917.333h-469.333c-64 0-115.2-46.933-125.867-106.667h467.2c70.4 0 128-57.6 128-128v-597.333c0-6.4 0-14.933-2.133-21.333h2.133c70.4 0 128 57.6 128 128v597.333c0 70.4-57.6 128-128 128z" />
<glyph unicode="&#xe930;" d="M727.467-14.933h-469.333c-70.4 0-128 57.6-128 128v597.333c0 70.4 57.6 128 128 128h469.333c70.4 0 128-57.6 128-128v-597.333c0-70.4-57.6-128-128-128z" />
<glyph unicode="&#xe931;" d="M689.067 669.867h-394.667c-19.2 0-36.267-14.933-36.267-34.133s14.933-34.133 36.267-34.133h394.667c19.2 0 36.267 14.933 36.267 34.133s-17.067 34.133-36.267 34.133v0z" />
<glyph unicode="&#xe932;" d="M689.067 520.533h-394.667c-19.2 0-36.267-14.933-36.267-34.133s14.933-34.133 36.267-34.133h394.667c19.2 0 36.267 14.933 36.267 34.133s-17.067 34.133-36.267 34.133v0z" />
<glyph unicode="&#xe933;" d="M689.067 371.2h-394.667c-19.2 0-36.267-14.933-36.267-34.133s14.933-34.133 36.267-34.133h394.667c19.2 0 36.267 14.933 36.267 34.133s-17.067 34.133-36.267 34.133v0z" />
<glyph unicode="&#xe934;" d="M689.067 221.867h-394.667c-19.2 0-36.267-14.933-36.267-34.133s14.933-34.133 36.267-34.133h394.667c19.2 0 36.267 14.933 36.267 34.133s-17.067 34.133-36.267 34.133v0z" />
<glyph unicode="&#xe935;" d="M377.6-14.933c-21.333 81.067-96 142.933-185.6 142.933-21.333 0-42.667-4.267-61.867-10.667v-4.267c0-70.4 57.6-128 128-128h119.467z" />
<glyph unicode="&#xe936;" glyph-name="ID_number_01" d="M524.8 872.533c-130.133 0-234.667-104.533-234.667-234.667 0-72.533 32-136.533 83.2-179.2-149.333-59.733-253.867-204.8-253.867-375.467 0-23.467 19.2-42.667 42.667-42.667s42.667 19.2 42.667 42.667c0 177.067 142.933 320 320 320 130.133 0 234.667 104.533 234.667 234.667s-104.533 234.667-234.667 234.667zM524.8 488.533c-83.2 0-149.333 66.133-149.333 149.333s66.133 149.333 149.333 149.333 149.333-66.133 149.333-149.333-66.133-149.333-149.333-149.333zM782.933 394.667c-19.2 14.933-44.8 12.8-59.733-6.4s-12.8-44.8 6.4-59.733c74.667-61.867 117.333-151.467 117.333-247.467 0-23.467 19.2-42.667 42.667-42.667s42.667 19.2 42.667 42.667c-2.133 123.733-55.467 236.8-149.333 313.6z" />
<glyph unicode="&#xe937;" glyph-name="ID_number_02" d="M661.333 889.6l-480-480c-4.267-4.267-8.533-10.667-10.667-17.067l-98.133-317.867c-6.4-21.333 0-42.667 14.933-59.733 14.933-14.933 38.4-21.333 59.733-14.933l317.867 96c6.4 2.133 12.8 6.4 19.2 10.667l266.667 266.667c17.067 17.067 17.067 42.667 0 59.733s-42.667 17.067-59.733 0l-243.2-238.933-181.333 181.333 456.533 454.4 181.333-181.333-72.533-70.4c-17.067-17.067-17.067-42.667 0-59.733s42.667-17.067 59.733 0l72.533 72.533c34.133 34.133 34.133 87.467 0 121.6l-181.333 181.333c-34.133 29.867-87.467 29.867-121.6-4.267zM219.733 302.933l153.6-153.6-219.733-66.133 66.133 219.733z" />
<glyph unicode="&#xe938;" d="M390.485 617.301h-47.104c-9.557 0-17.067-7.509-17.067-17.067v-59.392" />
<glyph unicode="&#xe939;" d="M444.075 617.301h-13.995" />
<glyph unicode="&#xe93a;" d="M551.936 617.301h-80.213" />
<glyph unicode="&#xe93b;" d="M844.459 577.365l-20.48 58.027c-2.389 6.827-8.875 11.264-16.043 11.264h-256.683c-7.168 0-13.653-4.437-16.043-11.264l-20.48-58.027c-2.389-6.827-8.875-11.264-16.043-11.264h-285.355c-9.899 0-17.749-8.533-17.067-18.773l39.253-404.139c0.683-8.875 8.192-15.36 17.067-15.36h577.195c8.875 0 16.043 6.485 17.067 15.36l39.253 404.139c1.024 9.899-6.827 18.773-17.067 18.773h-8.875c-6.827 0-13.312 4.779-15.701 11.264z" />
<glyph unicode="&#xe93c;" d="M869.035 566.101h-8.875c-7.168 0-13.653 4.437-16.043 11.264l-20.48 58.027c-2.389 6.827-8.875 11.264-16.043 11.264h-42.667c7.168 0 13.653-4.437 16.043-11.264l20.48-58.027c2.389-6.827 8.875-11.264 16.043-11.264h8.875c9.899 0 17.749-8.533 17.067-18.773l-39.253-404.139c-0.683-8.875-8.192-15.36-17.067-15.36h42.667c8.875 0 16.043 6.485 17.067 15.36l39.253 404.139c1.024 10.24-6.827 18.773-17.067 18.773z" />
<glyph unicode="&#xe93d;" d="M472.747 128.171h357.035c8.875 0 16.043 6.485 17.067 15.36l39.253 404.139c1.024 9.899-6.827 18.773-17.067 18.773h-8.875c-7.168 0-13.653 4.437-16.043 11.264l-20.48 58.027c-2.389 6.827-8.875 11.264-16.043 11.264h-256.683c-7.168 0-13.653-4.437-16.043-11.264l-20.48-58.027c-2.389-6.827-8.875-11.264-16.043-11.264h-285.013c-9.899 0-17.749-8.533-17.067-18.773l39.253-404.139c0.683-8.875 8.192-15.36 17.067-15.36h83.285" />
<glyph unicode="&#xe93e;" d="M405.163 128.171h16.725" />
<glyph unicode="&#xe93f;" d="M328.704 825.515h-165.888c-36.523 0-65.877-29.355-65.877-65.877s29.696-65.877 65.877-65.877h27.989l33.451-33.451 33.451 33.451h70.656c36.523 0 65.877 29.355 65.877 65.877s-29.013 65.877-65.536 65.877z" />
<glyph unicode="&#xe940;" d="M118.101 752.811c0 40.277 29.355 72.704 65.877 72.704h-21.163c-36.523 0-65.877-29.355-65.877-65.877 0-28.672 18.432-53.248 44.373-62.123-13.995 13.312-23.211 33.109-23.211 55.296z" />
<glyph unicode="&#xe941;" d="M211.627 672.939l12.971-12.629 33.451 33.451h-25.6z" />
<glyph unicode="&#xe942;" d="M328.704 825.515h-25.6c36.523 0 65.877-29.355 65.877-65.877s-29.355-65.877-65.877-65.877h25.6c36.523 0 65.877 29.355 65.877 65.877s-29.355 65.877-65.877 65.877z" />
<glyph unicode="&#xe943;" d="M328.704 825.515h-165.888c-36.523 0-65.877-29.355-65.877-65.877s29.696-65.877 65.877-65.877h27.989l33.451-33.451 33.451 33.451h70.656c36.523 0 65.877 29.355 65.877 65.877s-29.013 65.877-65.536 65.877z" />
<glyph unicode="&#xe944;" d="M943.104 230.229c0-86.905-70.45-157.355-157.355-157.355s-157.355 70.45-157.355 157.355c0 86.905 70.45 157.355 157.355 157.355s157.355-70.45 157.355-157.355z" />
<glyph unicode="&#xe945;" d="M649.899 226.133c0 87.040 70.315 157.355 157.355 157.355 6.827 0 13.653-0.341 20.48-1.365-13.312 3.755-27.307 5.461-41.643 5.461-87.040 0-157.355-70.315-157.355-157.355 0-79.872 59.733-146.091 136.875-155.989-66.901 18.091-115.712 79.189-115.712 151.893z" />
<glyph unicode="&#xe946;" d="M822.955 383.147c55.979-24.235 94.891-79.872 94.891-144.384 0-87.040-70.315-157.355-157.355-157.355-12.629 0-24.917 1.707-36.864 4.437 19.115-8.192 40.277-12.971 62.464-12.971 87.040 0 157.355 70.315 157.355 157.355-0.341 74.069-51.541 136.192-120.491 152.917z" />
<glyph unicode="&#xe947;" d="M650.24 309.76c27.307 46.421 77.824 77.824 135.851 77.824 87.040 0 157.355-70.315 157.355-157.355s-70.315-157.355-157.355-157.355-157.355 70.315-157.355 157.355" />
<glyph unicode="&#xe948;" d="M633.515 269.483c1.024 4.096 2.389 8.192 3.755 12.288" />
<glyph unicode="&#xe949;" d="M797.696 304.981l19.456-39.253c1.365-2.389 3.755-4.096 6.485-4.779l43.349-6.485c6.827-1.024 9.899-9.557 4.779-14.677l-31.403-30.72c-2.048-2.048-3.072-4.779-2.389-7.509l7.509-43.349c1.024-6.827-6.144-12.288-12.288-8.875l-38.912 20.48c-2.389 1.365-5.461 1.365-7.851 0l-38.912-20.48c-6.144-3.413-13.653 2.048-12.288 8.875l7.509 43.349c0.341 2.731-0.341 5.461-2.389 7.509l-31.403 30.72c-5.12 4.779-2.389 13.653 4.779 14.677l43.349 6.485c2.731 0.341 5.12 2.048 6.485 4.779l19.456 39.253c2.731 6.485 11.605 6.485 14.677 0z" />
<glyph unicode="&#xe94a;" d="M773.12 425.813l25.6 42.667" />
<glyph unicode="&#xe94b;" d="M731.477 431.275l-10.581 48.469" />
<glyph unicode="&#xe94c;" d="M700.757 416.256l-33.792 36.181" />
<glyph unicode="&#xe94d;" d="M1024 328.192c0-11.688-9.475-21.163-21.163-21.163s-21.163 9.475-21.163 21.163c0 11.688 9.475 21.163 21.163 21.163s21.163-9.475 21.163-21.163z" />
<glyph unicode="&#xe94e;" d="M466.944 846.677c0-11.688-9.475-21.163-21.163-21.163s-21.163 9.475-21.163 21.163c0 11.688 9.475 21.163 21.163 21.163s21.163-9.475 21.163-21.163z" />
<glyph unicode="&#xe94f;" d="M335.189 757.589c0-9.426-7.641-17.067-17.067-17.067s-17.067 7.641-17.067 17.067c0 9.426 7.641 17.067 17.067 17.067s17.067-7.641 17.067-17.067z" />
<glyph unicode="&#xe950;" d="M258.731 757.589c0-9.426-7.641-17.067-17.067-17.067s-17.067 7.641-17.067 17.067c0 9.426 7.641 17.067 17.067 17.067s17.067-7.641 17.067-17.067z" />
<glyph unicode="&#xe951;" d="M186.368 757.589c0-9.426-7.641-17.067-17.067-17.067s-17.067 7.641-17.067 17.067c0 9.426 7.641 17.067 17.067 17.067s17.067-7.641 17.067-17.067z" />
<glyph unicode="&#xe952;" d="M41.643 532.309c0-11.688-9.475-21.163-21.163-21.163s-21.163 9.475-21.163 21.163c0 11.688 9.475 21.163 21.163 21.163s21.163-9.475 21.163-21.163z" />
<glyph unicode="&#xe953;" d="M379.221 401.92c0-13.995-11.264-25.259-25.259-25.259s-25.259 11.264-25.259 25.259" />
<glyph unicode="&#xe954;" d="M530.773 401.92c0-13.995-11.264-25.259-25.259-25.259s-25.259 11.264-25.259 25.259" />
<glyph unicode="&#xe955;" d="M381.269 304.981c9.216 17.408 27.307 29.355 48.469 29.355 20.821 0 38.912-11.605 48.128-28.672" />
<glyph unicode="&#xe956;" d="M146.091 443.221l91.819-301.397c2.731-8.875 12.288-13.995 21.163-11.264l335.531 102.059c8.875 2.731 13.995 12.288 11.264 21.163l-118.101 386.731c-2.731 8.875-12.288 13.995-21.163 11.264l-265.216-74.069-55.296-134.485z" />
<glyph unicode="&#xe957;" d="M150.869 349.013l2.048-6.144" />
<glyph unicode="&#xe958;" d="M163.84 307.029l50.517-165.205c2.731-8.875 12.288-13.995 21.163-11.264l335.531 102.059c8.875 2.731 13.995 12.288 11.264 21.163l-118.443 386.731c-2.731 8.875-12.288 13.995-21.163 11.264l-241.664-73.728-78.848-134.827 22.869-74.752" />
<glyph unicode="&#xe959;" d="M201.045 574.635l28.672-94.208-102.4-36.864c-1.024-0.341-2.048 0.683-1.365 1.707l73.045 129.707c0.341 0.683 1.707 0.683 2.048-0.341z" />
<glyph unicode="&#xe95a;" d="M786.432 133.632h-471.040c-7.509 0-13.653 6.144-13.653 13.653v526.336c0 7.509 6.144 13.653 13.653 13.653h471.040c7.509 0 13.653-6.144 13.653-13.653v-525.995c0-7.851-6.144-13.995-13.653-13.995z" />
<glyph unicode="&#xe95b;" d="M756.736 166.741h-411.989c-7.509 0-13.653 6.144-13.653 13.653v460.117c0 7.509 6.144 13.653 13.653 13.653h411.989c7.509 0 13.653-6.144 13.653-13.653v-460.459c0-7.509-5.803-13.312-13.653-13.312z" />
<glyph unicode="&#xe95c;" d="M756.736 166.741h-411.989c-7.509 0-13.653 6.144-13.653 13.653v460.117c0 7.509 6.144 13.653 13.653 13.653h411.989c7.509 0 13.653-6.144 13.653-13.653v-460.459c0-7.509-5.803-13.312-13.653-13.312z" />
<glyph unicode="&#xe95d;" d="M610.645 704v20.48c0 27.307-22.187 49.835-49.835 49.835-27.307 0-49.835-22.187-49.835-49.835v-20.48c-26.624-14.677-46.080-40.619-51.883-71.339l202.411 1.707c-5.461 30.037-24.576 55.296-50.859 69.632z" />
<glyph unicode="&#xe95e;" d="M610.645 704v20.48c0 27.307-22.187 49.835-49.835 49.835-1.707 0-3.413 0-5.12-0.341 18.091-7.509 31.061-25.259 31.061-46.080v-20.48c25.941-14.336 45.397-39.595 51.541-69.632l-177.835-1.365c-0.341-1.365-0.683-2.389-0.683-3.755l202.411 1.707c-6.144 30.037-25.259 55.296-51.541 69.632z" />
<glyph unicode="&#xe95f;" d="M509.269 769.195c-0.683-1.024-1.707-2.048-2.389-3.072" />
<glyph unicode="&#xe960;" d="M498.347 749.397c-1.365-5.12-2.389-10.24-2.389-16.043v-22.528c-29.355-16.043-50.859-44.715-57.344-78.848l223.915 1.707c-6.827 33.109-27.989 61.099-56.661 76.8v22.528c0 30.379-24.576 54.955-54.955 54.955-11.264 0-21.845-3.413-30.379-9.216" />
<glyph unicode="&#xe961;" d="M576.171 725.163c0-13.95-11.309-25.259-25.259-25.259s-25.259 11.309-25.259 25.259c0 13.95 11.309 25.259 25.259 25.259s25.259-11.309 25.259-25.259z" />
<glyph unicode="&#xe962;" d="M491.861 505.344c0-28.088-22.77-50.859-50.859-50.859s-50.859 22.77-50.859 50.859c0 28.088 22.77 50.859 50.859 50.859s50.859-22.77 50.859-50.859z" />
<glyph unicode="&#xe963;" d="M466.261 851.797c0-11.688-9.475-21.163-21.163-21.163s-21.163 9.475-21.163 21.163c0 11.688 9.475 21.163 21.163 21.163s21.163-9.475 21.163-21.163z" />
<glyph unicode="&#xe964;" d="M44.032 535.040c0-11.688-9.475-21.163-21.163-21.163s-21.163 9.475-21.163 21.163c0 11.688 9.475 21.163 21.163 21.163s21.163-9.475 21.163-21.163z" />
<glyph unicode="&#xe965;" d="M1024 336.384c0-11.688-9.475-21.163-21.163-21.163s-21.163 9.475-21.163 21.163c0 11.688 9.475 21.163 21.163 21.163s21.163-9.475 21.163-21.163z" />
<glyph unicode="&#xe966;" d="M542.379 535.040h147.797" />
<glyph unicode="&#xe967;" d="M542.379 480.085h97.28" />
<glyph unicode="&#xe968;" d="M394.581 378.709h194.219" />
<glyph unicode="&#xe969;" d="M394.581 307.029h126.635" />
<glyph unicode="&#xe96a;" d="M394.581 235.008h126.635" />
<glyph unicode="&#xe96b;" d="M944.811 234.325c0-88.601-71.825-160.427-160.427-160.427s-160.427 71.825-160.427 160.427c0 88.601 71.825 160.427 160.427 160.427s160.427-71.825 160.427-160.427z" />
<glyph unicode="&#xe96c;" d="M845.483 382.805c47.104-27.989 78.848-79.189 78.848-138.24 0-88.747-72.021-160.427-160.427-160.427-21.845 0-42.325 4.437-61.099 12.288 23.893-14.336 51.883-22.528 81.579-22.528 88.747 0 160.427 72.021 160.427 160.427 0 66.901-40.96 124.587-99.328 148.48z" />
<glyph unicode="&#xe96d;" d="M633.856 213.845c0 88.747 72.021 160.427 160.427 160.427 58.709 0 110.251-31.744 138.24-78.848-24.235 58.368-81.579 99.328-148.48 99.328-88.747 0-160.427-72.021-160.427-160.427 0-29.696 8.192-57.685 22.528-81.579-7.851 18.773-12.288 39.595-12.288 61.099z" />
<glyph unicode="&#xe96e;" d="M726.016 384.171c18.091 7.168 37.547 10.923 58.368 10.923 88.747 0 160.427-72.021 160.427-160.427s-72.021-160.427-160.427-160.427-160.427 72.021-160.427 160.427c0 36.181 11.947 69.973 32.427 96.597" />
<glyph unicode="&#xe96f;" d="M693.589 366.763c1.707 1.365 3.755 2.389 5.803 3.755" />
<glyph unicode="&#xe970;" d="M842.411 298.155l-81.92-82.261c-3.413-3.413-8.533-3.413-11.947 0l-22.528 22.528c-7.509 7.509-19.456 7.509-26.965 0v0c-7.509-7.509-7.509-19.456 0-26.965l40.277-40.277c8.192-8.192 21.504-8.192 30.037 0l100.011 100.011c7.509 7.509 7.509 19.456 0 26.965v0c-7.509 7.509-19.456 7.509-26.965 0z" />
<glyph unicode="&#xe971;" d="M247.467 861.867h563.2c72.533 0 130.133-57.6 130.133-130.133v-629.333c0-72.533-57.6-130.133-130.133-130.133h-563.2c-72.533 0-130.133 57.6-130.133 130.133v627.2c0 72.533 57.6 132.267 130.133 132.267v0z" />
<glyph unicode="&#xe972;" d="M757.333 582.4h-418.133c-19.2 0-36.267-14.933-36.267-34.133s14.933-34.133 36.267-34.133h418.133c19.2 0 36.267 14.933 36.267 34.133s-17.067 34.133-36.267 34.133v0z" />
<glyph unicode="&#xe974;" d="M755.2 379.733h-416c-19.2 0-36.267-14.933-36.267-34.133s14.933-34.133 36.267-34.133h416c19.2 0 36.267 14.933 36.267 34.133s-17.067 34.133-36.267 34.133v0z" />
<glyph unicode="&#xe975;" d="M411.733 750.933c-40.533 0-70.4 25.6-70.4 53.333v2.133c0 29.867 32 53.333 70.4 53.333h379.733c4.267-44.8-19.2-76.8-36.267-89.6s-40.533-21.333-57.6-21.333h-285.867z" />
<glyph unicode="&#xe976;" d="M676.267 780.8h-283.733c-38.4 0-68.267 32-68.267 68.267-2.133 36.267 29.867 68.267 68.267 68.267h283.733c38.4 0 68.267-32 68.267-68.267v-2.133c0-19.2-8.533-36.267-21.333-46.933-10.667-12.8-27.733-19.2-46.933-19.2v0z" />
<glyph unicode="&#xe977;" d="M247.467-29.867h313.6c-85.333 166.4-249.6 285.867-445.867 307.2v-177.067c2.133-72.533 59.733-130.133 132.267-130.133z" />
<glyph unicode="&#xe978;" d="M648.533 917.333h-394.667c-74.667 0-136.533-61.867-136.533-136.533v-672c0-74.667 61.867-136.533 136.533-136.533h554.667c74.667 0 136.533 61.867 136.533 136.533v514.133l-296.533 294.4z" />
<glyph unicode="&#xe979;" d="M738.133 569.6h206.933v51.2l-296.533 296.533h-27.733v-230.4c0-64 51.2-117.333 117.333-117.333z" />
<glyph unicode="&#xe97a;" d="M648.533 917.333v-209.067c0-46.933 38.4-87.467 87.467-87.467h209.067l-296.533 296.533z" />
<glyph unicode="&#xe97b;" d="M507.733-27.733c-51.2 121.6-172.8 206.933-313.6 206.933-25.6 0-53.333-4.267-76.8-8.533v-61.867c0-74.667 61.867-136.533 136.533-136.533h253.867z" />
<glyph unicode="&#xe97c;" d="M684.8 307.2c68.267 68.267 68.267 181.333 0 249.6s-181.333 68.267-249.6 0c-59.733-59.733-66.133-149.333-25.6-217.6l-72.533-72.533c-14.933-14.933-14.933-40.533 0-55.467s40.533-14.933 55.467 0l72.533 72.533c70.4-42.667 162.133-36.267 219.733 23.467zM492.8 362.667c-38.4 38.4-38.4 98.133 0 136.533s98.133 38.4 136.533 0c38.4-38.4 38.4-98.133 0-136.533s-98.133-36.267-136.533 0z" />
<glyph unicode="&#xe97d;" glyph-name="return_01" d="M708.267 59.733c-8.533 0-17.067 2.133-23.467 8.533l-384 384 386.133 386.133c12.8 12.8 32 12.8 44.8 0s12.8-32 0-44.8l-339.2-341.333 339.2-339.2c12.8-12.8 12.8-32 0-44.8-6.4-6.4-14.933-8.533-23.467-8.533z" />
<glyph unicode="&#xe97e;" d="M759.125 234.667h-592.555c-9.557 0-17.067 7.509-17.067 17.067v427.691c0 9.557 7.509 17.067 17.067 17.067h592.555c9.557 0 17.067-7.509 17.067-17.067v-427.349c0-9.557-7.509-17.408-17.067-17.408z" />
<glyph unicode="&#xe97f;" d="M755.029 696.491c11.605 0 21.163-9.557 21.163-21.163v-419.157c0-11.605-9.557-21.163-21.163-21.163h-584.363c-11.605 0-21.163 9.557-21.163 21.163v419.157c0 11.605 9.557 21.163 21.163 21.163" />
<glyph unicode="&#xe980;" d="M776.192 605.355h-626.688v74.069c0 9.557 7.509 17.067 17.067 17.067h592.555c9.557 0 17.067-7.509 17.067-17.067v-74.069z" />
<glyph unicode="&#xe981;" d="M755.029 696.491h-33.792c11.605 0 21.163-9.557 21.163-21.163v-69.973h33.792v69.973c0 11.605-9.216 21.163-21.163 21.163z" />
<glyph unicode="&#xe982;" d="M624.299 696.491h130.731c11.605 0 21.163-9.557 21.163-21.163v-69.973h-626.688v69.973c0 11.605 9.557 21.163 21.163 21.163h318.805" />
<glyph unicode="&#xe983;" d="M574.123 696.491h17.067" />
<glyph unicode="&#xe984;" d="M333.824 495.104c0-42.038-34.079-76.117-76.117-76.117s-76.117 34.079-76.117 76.117c0 42.038 34.079 76.117 76.117 76.117s76.117-34.079 76.117-76.117z" />
<glyph unicode="&#xe985;" d="M198.315 482.475c0 41.984 34.133 76.117 76.117 76.117 13.312 0 25.941-3.413 36.864-9.557-13.653 13.653-32.768 22.187-53.931 22.187-41.984 0-76.117-34.133-76.117-76.117 0-28.672 16.043-53.589 39.253-66.56-13.653 13.653-22.187 32.768-22.187 53.931z" />
<glyph unicode="&#xe986;" d="M218.112 560.64c4.096 2.389 8.533 4.779 13.312 6.485" />
<glyph unicode="&#xe987;" d="M257.707 571.563c41.984 0 76.117-34.133 76.117-76.117s-34.133-76.117-76.117-76.117-76.117 34.133-76.117 76.117" />
<glyph unicode="&#xe988;" d="M380.245 541.867h334.507" />
<glyph unicode="&#xe989;" d="M481.963 469.845h232.789" />
<glyph unicode="&#xe98a;" d="M194.219 647.68h105.813" />
<glyph unicode="&#xe98b;" d="M429.397 450.048l12.629 22.528c1.365 2.731 0.683 5.803-1.365 7.168l-27.989 15.701c-2.389 1.365-5.461 0.341-6.827-2.389l-12.629-22.528c-1.365-2.731-4.779-3.755-6.827-2.389v0c-2.389 1.365-5.461 0.341-6.827-2.389l-152.917-269.995c-0.683-1.024-1.024-2.389-0.683-3.413l4.096-45.056c0.341-3.413 3.413-5.12 6.485-3.755l40.619 19.797c1.024 0.683 2.048 1.365 2.731 2.389l152.917 269.995c1.365 2.731 0.683 5.803-1.365 7.168v0c-2.731 1.024-3.413 4.437-2.048 7.168z" />
<glyph unicode="&#xe98c;" d="M442.368 472.576c1.365 2.731 0.683 5.803-1.365 7.168l-27.989 15.701c-2.048 1.024-4.779 0.341-6.485-1.707l17.408-9.899c2.389-1.365 3.072-4.437 1.365-7.168l-12.629-22.528c-1.365-2.731-0.683-5.803 1.365-7.168 2.389-1.365 3.072-4.437 1.365-7.168l-152.576-269.995c-0.683-1.024-1.365-2.048-2.731-2.389l-30.72-15.019 0.341-5.461c0.341-3.413 3.413-5.12 6.485-3.755l40.619 19.797c1.024 0.683 2.048 1.365 2.731 2.389l152.917 269.995c1.365 2.731 0.683 5.803-1.365 7.168-2.389 1.365-3.072 4.437-1.365 7.168l12.629 22.869z" />
<glyph unicode="&#xe98d;" d="M429.397 450.048l12.629 22.528c1.365 2.731 0.683 5.803-1.365 7.168l-27.989 15.701c-2.389 1.365-5.461 0.341-6.827-2.389l-12.629-22.528c-1.365-2.731-4.779-3.755-6.827-2.389v0c-2.389 1.365-5.461 0.341-6.827-2.389l-152.917-269.995c-0.683-1.024-1.024-2.389-0.683-3.413l4.096-45.056c0.341-3.413 3.413-5.12 6.485-3.755l40.619 19.797c1.024 0.683 2.048 1.365 2.731 2.389l152.917 269.995c1.365 2.731 0.683 5.803-1.365 7.168v0c-2.731 1.024-3.413 4.437-2.048 7.168z" />
<glyph unicode="&#xe98e;" d="M417.109 401.579l9.216-5.12c7.168-4.096 9.216-14.336 4.437-22.869l-32.085-57.685c-4.779-8.533-2.731-18.773 4.437-22.869v0c7.168-4.096 16.725-0.341 21.504 8.192l13.653 24.576" />
<glyph unicode="&#xe98f;" d="M467.968 105.643h90.453c11.605 0 21.163-9.557 21.163-21.163v0c0-11.605-9.557-21.163-21.163-21.163h-42.325" />
<glyph unicode="&#xe990;" d="M410.624 105.643h13.312" />
<glyph unicode="&#xe991;" d="M202.411 160.597h-23.211c-15.36 0-27.648-12.288-27.648-27.648v0c0-15.36 12.288-27.648 27.648-27.648h174.763" />
<glyph unicode="&#xe992;" d="M943.445 274.944c0-91.24-73.965-165.205-165.205-165.205s-165.205 73.965-165.205 165.205c0 91.24 73.965 165.205 165.205 165.205s165.205-73.965 165.205-165.205z" />
<glyph unicode="&#xe993;" d="M890.197 396.459c17.749-26.283 27.989-57.685 27.989-91.819 0-91.136-74.069-165.205-165.205-165.205-43.008 0-82.603 16.725-111.957 43.691 29.696-44.373 80.213-73.387 137.216-73.387 91.136 0 165.205 74.069 165.205 165.205 0 48.128-20.48 91.477-53.248 121.515z" />
<glyph unicode="&#xe994;" d="M634.539 258.219c0 91.136 74.069 165.205 165.205 165.205 34.133 0 65.536-10.24 91.819-27.989-29.696 27.989-69.291 45.056-112.981 45.056-91.136 0-165.205-74.069-165.205-165.205 0-57.003 29.013-107.52 73.045-137.216-32.085 30.037-51.883 72.704-51.883 120.149z" />
<glyph unicode="&#xe995;" d="M692.907 416.256c24.917 15.019 54.272 23.893 85.675 23.893 91.136 0 165.205-74.069 165.205-165.205s-74.069-165.205-165.205-165.205-165.205 74.069-165.205 165.205c0 24.235 5.12 47.104 14.336 67.584" />
<glyph unicode="&#xe996;" d="M659.456 389.632c2.389 2.389 4.779 4.779 7.168 6.827" />
<glyph unicode="&#xe997;" d="M752.64 280.405l87.381-61.781c8.875-5.803 20.48-3.413 26.283 5.12v0c5.803 8.875 3.413 20.48-5.12 26.283l-70.315 47.445v76.8c0 10.581-8.533 19.115-19.115 19.115s-19.115-8.533-19.115-19.115v-93.867z" />
<glyph unicode="&#xe998;" d="M752.64 280.405l87.381-61.781c8.875-5.803 20.48-3.413 26.283 5.12v0c5.803 8.875 3.413 20.48-5.12 26.283l-70.315 47.445v76.8c0 10.581-8.533 19.115-19.115 19.115s-19.115-8.533-19.115-19.115v-93.867z" />
<glyph unicode="&#xe999;" d="M464.896 846.677c0-11.688-9.475-21.163-21.163-21.163s-21.163 9.475-21.163 21.163c0 11.688 9.475 21.163 21.163 21.163s21.163-9.475 21.163-21.163z" />
<glyph unicode="&#xe99a;" d="M41.643 533.333c0-11.688-9.475-21.163-21.163-21.163s-21.163 9.475-21.163 21.163c0 11.688 9.475 21.163 21.163 21.163s21.163-9.475 21.163-21.163z" />
<glyph unicode="&#xe99b;" d="M1024 334.336c0-11.688-9.475-21.163-21.163-21.163s-21.163 9.475-21.163 21.163c0 11.688 9.475 21.163 21.163 21.163s21.163-9.475 21.163-21.163z" />
<glyph unicode="&#xe99c;" glyph-name="sign_out_04" d="M573.867 452.267l256 256c12.8 12.8 12.8 32 0 44.8s-32 12.8-44.8 0l-256-256-256 256c-12.8 12.8-32 12.8-44.8 0s-12.8-32 0-44.8l256-256-256-256c-12.8-12.8-12.8-32 0-44.8v0c12.8-12.8 32-12.8 44.8 0l256 256 256-256c12.8-12.8 32-12.8 44.8 0v0c12.8 12.8 12.8 32 0 44.8l-256 256z" />
<glyph unicode="&#xe99d;" glyph-name="stop_03" d="M125.867 264.533c0 8.533 2.133 17.067 8.533 23.467l386.133 386.133 386.133-386.133c12.8-12.8 12.8-32 0-44.8s-32-12.8-44.8 0l-341.333 339.2-339.2-339.2c-12.8-12.8-32-12.8-44.8 0-6.4 6.4-10.667 14.933-10.667 21.333z" />
<glyph unicode="&#xe99e;" d="M249.856 297.813l-59.051-235.179" />
<glyph unicode="&#xe99f;" d="M205.483 291.328l-58.709-79.531" />
<glyph unicode="&#xe9a0;" d="M637.952 505.344l125.952-41.643" />
<glyph unicode="&#xe9a1;" d="M892.587 281.771l68.608-44.715" />
<glyph unicode="&#xe9a2;" d="M865.621 299.52l7.851-5.12" />
<glyph unicode="&#xe9a3;" d="M583.339 484.523l255.317-167.595" />
<glyph unicode="&#xe9a4;" d="M285.355 698.197l-20.139 30.037c0.341 1.024 1.024 1.707 1.365 2.731 5.461 12.971-0.683 27.648-13.653 32.768-12.971 5.461-27.648-0.683-32.768-13.653-5.461-12.971 0.683-27.648 13.653-32.768 3.072-1.365 6.485-2.048 9.899-2.048l19.456-29.013z" />
<glyph unicode="&#xe9a5;" d="M1024 341.845c0-13.95-11.309-25.259-25.259-25.259s-25.259 11.309-25.259 25.259c0 13.95 11.309 25.259 25.259 25.259s25.259-11.309 25.259-25.259z" />
<glyph unicode="&#xe9a6;" d="M50.517 539.136c0-13.95-11.309-25.259-25.259-25.259s-25.259 11.309-25.259 25.259c0 13.95 11.309 25.259 25.259 25.259s25.259-11.309 25.259-25.259z" />
<glyph unicode="&#xe9a7;" d="M470.016 849.749c0-13.95-11.309-25.259-25.259-25.259s-25.259 11.309-25.259 25.259c0 13.95 11.309 25.259 25.259 25.259s25.259-11.309 25.259-25.259z" />
<glyph unicode="&#xe9a8;" d="M190.805 509.099c-16.384 68.267 12.629 141.995 76.117 179.541 63.147 36.864 140.629 26.965 192.171-19.456z" />
<glyph unicode="&#xe9a9;" d="M291.499 685.568c16.384 11.947 34.475 20.48 53.248 25.6-26.624-0.683-53.248-8.192-77.824-22.528-63.829-37.547-92.843-111.275-76.117-179.541l34.816 20.821c-8.192 58.368 15.019 118.784 65.877 155.648z" />
<glyph unicode="&#xe9aa;" d="M349.525 622.763c-9.899-5.12-19.797-10.923-29.696-16.725-135.851-79.872-222.208-185.003-192.853-234.837s163.157-25.6 299.349 53.931 222.208 185.003 192.853 234.837c-21.845 37.547-102.741 33.109-199.339-4.779z" />
<glyph unicode="&#xe9ab;" d="M618.837 660.309c-3.413 5.803-8.192 10.581-14.336 14.677-9.899-56.32-75.093-140.288-171.008-213.333-125.269-95.573-255.659-135.509-290.816-89.429-17.408 22.528-8.192 61.781 20.139 107.179-36.181-43.349-51.2-82.944-36.181-108.203 29.355-49.835 163.157-25.6 299.349 53.931 135.851 79.872 222.208 185.003 192.853 235.179z" />
<glyph unicode="&#xe9ac;" d="M520.192 610.475c0-11.499-9.322-20.821-20.821-20.821s-20.821 9.322-20.821 20.821c0 11.499 9.322 20.821 20.821 20.821s20.821-9.322 20.821-20.821z" />
<glyph unicode="&#xe9ad;" d="M410.965 593.749c0-11.499-9.322-20.821-20.821-20.821s-20.821 9.322-20.821 20.821c0 11.499 9.322 20.821 20.821 20.821s20.821-9.322 20.821-20.821z" />
<glyph unicode="&#xe9ae;" d="M310.272 526.507c0-11.499-9.322-20.821-20.821-20.821s-20.821 9.322-20.821 20.821c0 11.499 9.322 20.821 20.821 20.821s20.821-9.322 20.821-20.821z" />
<glyph unicode="&#xe9af;" d="M247.467 442.539c0-11.499-9.322-20.821-20.821-20.821s-20.821 9.322-20.821 20.821c0 11.499 9.322 20.821 20.821 20.821s20.821-9.322 20.821-20.821z" />
<glyph unicode="&#xe9b0;" d="M349.525 622.763c-9.899-5.12-19.797-10.923-29.696-16.725-135.851-79.872-222.208-185.003-192.853-234.837s163.157-25.6 299.349 53.931 222.208 185.003 192.853 234.837c-21.845 37.547-102.741 33.109-199.339-4.779" />
<glyph unicode="&#xe9b1;" d="M397.312 645.973c-3.072-1.365-5.803-2.731-8.875-4.096" />
<glyph unicode="&#xe9b2;" d="M493.39 549.627c12.89-21.942-25.017-68.137-84.668-103.179s-118.457-45.661-131.347-23.719c-12.89 21.942 25.017 68.137 84.668 103.179s118.457 45.661 131.347 23.719z" />
<glyph unicode="&#xe9b3;" d="M376.149 520.704c26.624 19.115 53.589 32.768 76.117 39.595-24.917-3.072-57.344-15.019-90.112-34.133-59.733-35.157-97.621-81.237-84.651-103.083 3.755-6.485 11.947-10.24 22.869-11.264-12.629 21.163 20.821 69.291 75.776 108.885z" />
<glyph unicode="&#xe9b4;" d="M493.568 549.717c-4.437 7.509-13.995 11.264-27.307 11.264 10.24-22.187-23.552-68.608-77.824-106.496-33.451-23.211-67.243-38.229-92.501-41.984 24.917-4.096 68.608 8.192 112.64 34.133 59.733 34.816 97.621 81.237 84.992 103.083z" />
<glyph unicode="&#xe9b5;" d="M190.805 509.099c-16.384 68.267 12.629 141.995 76.117 179.541 63.147 36.864 140.629 26.965 192.171-19.456" />
<glyph unicode="&#xe9b6;" d="M493.39 549.627c12.89-21.942-25.017-68.137-84.668-103.179s-118.457-45.661-131.347-23.719c-12.89 21.942 25.017 68.137 84.668 103.179s118.457 45.661 131.347 23.719z" />
<glyph unicode="&#xe9b7;" d="M449.536 266.411l12.288 1.707c4.096 0.683 7.509 3.072 9.557 6.827l52.565 106.155c4.779 9.216 18.091 9.216 22.528 0l52.565-106.155c1.707-3.755 5.461-6.144 9.557-6.827l117.077-17.067c10.24-1.365 14.336-14.336 6.827-21.504l-84.651-82.603c-3.072-2.731-4.437-7.168-3.755-11.264l20.139-116.736c1.707-10.24-8.875-18.091-18.432-13.312l-104.789 54.955c-3.755 2.048-8.192 2.048-11.605 0l-104.789-54.955c-9.216-4.779-20.139 3.072-18.432 13.312l20.139 116.736c0.683 4.096-0.683 8.192-3.755 11.264l-84.651 82.944c-7.509 7.168-3.413 20.139 6.827 21.504l37.888 5.461z" />
<glyph unicode="&#xe9b8;" d="M732.501 229.888c7.509 7.168 3.413 20.139-6.827 21.504l-12.971 2.048c1.024-4.096 0-8.192-3.413-11.605l-84.651-82.603c-3.072-2.731-4.437-7.168-3.755-11.264l20.139-116.736c1.707-8.875-6.485-16.043-14.677-14.677l19.797-10.581c9.216-4.779 20.139 3.072 18.432 13.312l-20.139 116.736c-0.683 4.096 0.683 8.192 3.755 11.264l84.309 82.603z" />
<glyph unicode="&#xe9b9;" d="M425.301 264.021l3.755 0.683" />
<glyph unicode="&#xe9ba;" d="M285.355 698.197l-20.139 30.037c0.341 1.024 1.024 1.707 1.365 2.731 5.461 12.971-0.683 27.648-13.653 32.768-12.971 5.461-27.648-0.683-32.768-13.653-5.461-12.971 0.683-27.648 13.653-32.768 3.072-1.365 6.485-2.048 9.899-2.048l19.456-29.013" />
<glyph unicode="&#xe9bb;" d="M449.536 266.411l12.288 1.707c4.096 0.683 7.509 3.072 9.557 6.827l52.565 106.155c4.779 9.216 18.091 9.216 22.528 0l52.565-106.155c1.707-3.755 5.461-6.144 9.557-6.827l117.077-17.067c10.24-1.365 14.336-14.336 6.827-21.504l-84.651-82.603c-3.072-2.731-4.437-7.168-3.755-11.264l20.139-116.736c1.707-10.24-8.875-18.091-18.432-13.312l-104.789 54.955c-3.755 2.048-8.192 2.048-11.605 0l-104.789-54.955c-9.216-4.779-20.139 3.072-18.432 13.312l20.139 116.736c0.683 4.096-0.683 8.192-3.755 11.264l-84.651 82.944c-7.509 7.168-3.413 20.139 6.827 21.504l37.888 5.461" />
<glyph unicode="&#xe9bc;" d="M485.717 214.869c0-13.995-11.264-25.259-25.259-25.259s-25.259 11.264-25.259 25.259" />
<glyph unicode="&#xe9bd;" d="M636.928 214.869c0-13.995-11.264-25.259-25.259-25.259s-25.259 11.264-25.259 25.259" />
<glyph unicode="&#xe9be;" d="M487.765 118.272c9.216 17.408 27.307 29.355 48.469 29.355 20.821 0 38.571-11.605 48.128-28.672" />
<glyph unicode="&#xe9bf;" glyph-name="code" d="M582.4 194.133l-157.867 157.867 142.933 142.933c23.467-21.333 49.067-38.4 81.067-51.2 21.333-8.533 46.933 2.133 55.467 25.6 8.533 21.333-2.133 46.933-25.6 55.467-21.333 8.533-38.4 19.2-53.333 34.133-59.733 59.733-59.733 155.733 0 213.333 59.733 59.733 155.733 59.733 213.333 0 59.733-59.733 59.733-155.733 0-213.333-10.667-10.667-21.333-19.2-34.133-25.6-21.333-10.667-27.733-38.4-17.067-57.6 10.667-21.333 38.4-27.733 57.6-17.067s36.267 23.467 53.333 40.533c91.733 91.733 91.733 243.2 0 334.933s-243.2 91.733-334.933 0c-72.533-72.533-87.467-181.333-46.933-268.8l-430.933-433.067c-17.067-17.067-17.067-42.667 0-59.733s42.667-17.067 59.733 0l44.8 44.8 93.867-93.867c17.067-17.067 42.667-17.067 59.733 0s17.067 42.667 0 59.733l-93.867 93.867 113.067 113.067 157.867-157.867c17.067-17.067 42.667-17.067 59.733 0s17.067 44.8 2.133 61.867z" />
</font>
</defs>
</svg>
